<svg id="Camada_1" data-name="Camada 1" xmlns="http://www.w3.org/2000/svg" viewBox="0 0 94.55 98.61"><defs><style>.cls-1{fill:#eee4e4;}.cls-2{fill:#c0bdbc;}.cls-3{fill:#aaa8a9;}.cls-4{fill:#565352;}.cls-5{fill:#2f2d2c;}.cls-6{fill:#54504f;}.cls-7{fill:#cec9c9;}.cls-8{fill:#cfcaca;}.cls-9{fill:#cac6c5;}.cls-10{fill:#3f3b3b;}.cls-11{fill:#545454;}.cls-12{fill:#b7b2b3;}.cls-13{fill:#535353;}.cls-14{fill:#686665;}.cls-15{fill:#3a3636;}.cls-16{fill:#3e3b3b;}.cls-17{fill:#c8c3c4;}.cls-18{fill:#999494;}.cls-19{fill:#a7a09f;}.cls-20{fill:#aba7a7;}.cls-21{fill:#7b7a7a;}.cls-22{fill:#999493;}.cls-23{fill:#a7a3a3;}.cls-24{fill:#524f4f;}.cls-25{fill:#a59f9f;}.cls-26{fill:#c21c6c;}.cls-27{fill:#d792b3;}.cls-28{fill:#dc99ba;}.cls-29{fill:#cb9fb2;}.cls-30{fill:#c390a6;}.cls-31{fill:#9b4066;}.cls-32{fill:#d05a8d;}.cls-33{fill:#d05089;}.cls-34{fill:#cd4e88;}.cls-35{fill:#be3d78;}.cls-36{fill:#fdfbfc;}.cls-37{fill:#bc226b;}.cls-38{fill:#8f1c50;}.cls-39{fill:#0e0106;}.cls-40{fill:#9e3867;}</style></defs><path d="M90.75,74.71A45.94,45.94,0,0,1,72.31,93.34c-14.14,7.69-28.57,8-43,.86A46.26,46.26,0,0,1,9.66,75.43c-.21-.35-.56-.63-.61-1.07-.12-.26-.07-.42.25-.42a3.64,3.64,0,0,1,1.14.71,9.45,9.45,0,0,0,5.8,1.92c8.28,0,16.57,0,24.86,0,1,0,1,0,.6-1a51.77,51.77,0,0,1-3.53-12.07c-.2-1.12-.26-1.19-1.39-1.19-6.81,0-13.63-.06-20.44,0a8.9,8.9,0,0,0-7.63,3.72,8,8,0,0,0-1,2.29,3,3,0,0,0-.18,1.2c0,.29.07.68-.4.75A49.74,49.74,0,0,1,3.32,56.83c0-.42-.13-.83-.19-1.24a15.55,15.55,0,0,1-.21-3.8c.52.1.65.49.83.82a8.2,8.2,0,0,0,7.53,4.45c8.29.11,16.59,0,24.88,0,1.15,0,1.1,0,1.12-1.18,0-1.38-.2-2.75-.21-4.13,0-2.68.07-5.35.25-8,0-.65-.15-.9-.77-.88H36.1c-7.78,0-15.56,0-23.35,0A12.06,12.06,0,0,0,7.41,44,7.79,7.79,0,0,0,4,47c-.18.31-.33.67-.77.69-.56-.59-.12-1.27-.17-1.91a48.15,48.15,0,0,1,4-16.18c.48.05.39.45.42.74a3.1,3.1,0,0,0,.18,1.21c.79,3.47,4.55,6,8.42,5.92,6.9-.11,13.81,0,20.71,0,1.21,0,1.21,0,1.45-1.21a46.91,46.91,0,0,1,3.65-12c.31-.62.06-.82-.54-.81H16.7a10.07,10.07,0,0,0-6.34,1.94,1.52,1.52,0,0,1-.88.4c-.27-.06-.39-.19-.23-.46A47.18,47.18,0,0,1,28.93,5.94,44.54,44.54,0,0,1,58.21,1.49,45.14,45.14,0,0,1,80.94,12.82a46.73,46.73,0,0,1,9.82,12.46c.14.26,0,.41-.22.47a2.5,2.5,0,0,1-1.18-.62,9.71,9.71,0,0,0-5.61-1.71q-12.25,0-24.51,0a2.43,2.43,0,0,0-.27,0c-.82,0-.88.1-.53.81a36.55,36.55,0,0,1,2.11,5.56c.61,1.95,1,4,1.44,6,.37,1.67,0,1.72,2.14,1.71H80.44c1.14,0,2.28,0,3.42,0A8.73,8.73,0,0,0,90,35.3a6.85,6.85,0,0,0,2.47-5.11c.08-.25.07-.57.45-.57A50.09,50.09,0,0,1,97,46l.06.44c0,.68.35,1.38-.16,2a1.09,1.09,0,0,1-.43-.56A8.21,8.21,0,0,0,88.66,43c-8.26-.15-16.52-.05-24.78-.05-.61,0-.94.12-.87.87a76.88,76.88,0,0,1,.07,12.14c-.08,1.16,0,1.19,1.17,1.19,5.92,0,11.84,0,17.75,0A62.82,62.82,0,0,0,89.39,57a8.55,8.55,0,0,0,7-4.6,1.37,1.37,0,0,1,.45-.56c.53.1.28.45.24.73a49.44,49.44,0,0,1-4.16,17.84c-.38,0-.36-.32-.44-.57-.23-3.47-2.13-5.63-5.32-6.77a11.35,11.35,0,0,0-3.88-.67c-6.49,0-13,0-19.47,0-1.43,0-1.42,0-1.68,1.39a49.75,49.75,0,0,1-3.49,11.9c-.39.84-.32.92.59.92,8.29,0,16.59,0,24.88,0a9.14,9.14,0,0,0,5.24-1.7,2.44,2.44,0,0,1,1.18-.61C90.79,74.3,90.92,74.43,90.75,74.71Z" transform="translate(-2.72 -0.72)"/><path class="cls-1" d="M3.32,47.67c1.54-3.09,4.17-4.49,7.48-4.91a27.78,27.78,0,0,1,3.41-.14c7.54,0,15.09,0,22.63,0,.68,0,.91.1.84.87a71.85,71.85,0,0,0,0,12.87c.07.81-.07,1-.89,1-7.22,0-14.43,0-21.64,0-.9,0-1.8,0-2.7.06-4.23.06-7.54-1.44-9.46-5.49l.19,3.68a13.33,13.33,0,0,1-.31-5c.05-.52-.18-1,0-1.49,0-.07.24.15.18-.11a2.05,2.05,0,0,1,0-.78A.85.85,0,0,1,3.32,47.67Z" transform="translate(-2.72 -0.72)"/><path class="cls-1" d="M96.9,51.82c-1.51,3.75-4.53,5.42-8.34,5.48-8.41.12-16.82,0-25.23.05-.59,0-.69-.19-.64-.74a73.89,73.89,0,0,0,0-13.22c0-.56,0-.79.67-.79,8.38,0,16.77-.06,25.14.06,3.73.05,6.75,1.6,8.33,5.24a2.23,2.23,0,0,1,.1.43c.27.26,0,.68.33.93,0,.44-.19.87,0,1.3-.26.27-.13.62-.18.93A.51.51,0,0,1,96.9,51.82Z" transform="translate(-2.72 -0.72)"/><path class="cls-1" d="M7.44,68.39c.81-3.41,3.22-5.12,6.41-6a10.71,10.71,0,0,1,2.77-.32c6.91,0,13.81,0,20.72,0,.73,0,.95.22,1.07.91a45.65,45.65,0,0,0,3.92,13.23c.39.78-.16.61-.55.61H19.89a36.37,36.37,0,0,1-5.22-.12A9.57,9.57,0,0,1,9.21,74a1.28,1.28,0,0,1-.52-.46,8.67,8.67,0,0,1-1.24-2.09c.21-.44-.18-.83-.09-1.26A7.85,7.85,0,0,1,7.44,68.39Z" transform="translate(-2.72 -0.72)"/><path class="cls-1" d="M90.53,74.31a10.55,10.55,0,0,1-7.2,2.55c-8.2,0-16.4,0-24.6,0H58a.42.42,0,0,1,0-.46,47.43,47.43,0,0,0,4-13.32c.12-.73.32-1,1.11-1,7.06,0,14.11,0,21.17,0a9,9,0,0,1,6.66,2.92,6.62,6.62,0,0,1,1.84,4.75c-.13.24,0,.5,0,.75s-.1.5-.21.74-.29.71-.45,1.06l-.17.35c-.19.27-.38.53-.55.82v.08C91.07,73.88,91,74.27,90.53,74.31Z" transform="translate(-2.72 -0.72)"/><path class="cls-1" d="M92.71,30.19c-.09,3.59-2.53,6.39-6.42,7.34a10.48,10.48,0,0,1-2.5.29c-6.93,0-13.87,0-20.81,0-.8,0-1-.27-1.11-1a45,45,0,0,0-4-13c-.35-.68-.11-.71.48-.71,8.5,0,17,0,25.5,0a9.77,9.77,0,0,1,6.66,2.53c.33,0,.41.35.62.54a.15.15,0,0,1,.12.07,6.18,6.18,0,0,0,.48.92c.23.5.47,1,.69,1.51.11.23.09.51.21.73S92.58,30,92.71,30.19Z" transform="translate(-2.72 -0.72)"/><path class="cls-2" d="M97.23,49.26c-.58-.14-.31-.59-.33-.93.36-.62,0-1.3.16-1.94A7.93,7.93,0,0,1,97.23,49.26Z" transform="translate(-2.72 -0.72)"/><path class="cls-3" d="M3.13,48.23a3.84,3.84,0,0,1,0,.9c-.12.37-.21-.05-.32-.06a5.23,5.23,0,0,1,.14-2A3.37,3.37,0,0,1,3.13,48.23Z" transform="translate(-2.72 -0.72)"/><path class="cls-4" d="M7.44,31.61c-.47-.6.06-1.37-.35-2l.17-.55c.4,0,.37.34.45.59C7.69,30.33,7.91,31,7.44,31.61Z" transform="translate(-2.72 -0.72)"/><path class="cls-5" d="M3.13,48.23c-.39-.31,0-.77-.21-1.13l.17-1.29c.23.6-.21,1.29.23,1.86A.75.75,0,0,1,3.13,48.23Z" transform="translate(-2.72 -0.72)"/><path class="cls-6" d="M7.44,68.39l0,2c0,.21.25.5-.19.54,0-.18-.24-.32-.17-.54C7.47,69.75,7,69,7.44,68.39Z" transform="translate(-2.72 -0.72)"/><path class="cls-7" d="M7.47,28.57a4.51,4.51,0,0,1,.67-1.31.37.37,0,0,1,.16.21,1.81,1.81,0,0,1-.55,1.47C7.48,29,7.53,28.72,7.47,28.57Z" transform="translate(-2.72 -0.72)"/><path class="cls-8" d="M92.33,28.74l-.68-1.46c.06-.07.08-.18.2-.2l.53,1.21C92.47,28.45,92.51,28.61,92.33,28.74Z" transform="translate(-2.72 -0.72)"/><path class="cls-9" d="M96.89,51.45c0-.32-.23-.77.34-.89,0,.31,0,.61,0,.92A.22.22,0,0,1,96.89,51.45Z" transform="translate(-2.72 -0.72)"/><path class="cls-10" d="M90.53,74.31a1.36,1.36,0,0,1,.77-.7,1.87,1.87,0,0,1-.55,1.1C90.72,74.55,90.71,74.38,90.53,74.31Z" transform="translate(-2.72 -0.72)"/><path class="cls-11" d="M92.71,30.19l-.18-.73c0-.2-.26-.48.18-.53.05.24.27.42.21.69C92.7,29.75,92.82,30,92.71,30.19Z" transform="translate(-2.72 -0.72)"/><path class="cls-12" d="M91.85,27.08l-.2.2a1.31,1.31,0,0,1-.36-1C91.64,26.43,91.69,26.8,91.85,27.08Z" transform="translate(-2.72 -0.72)"/><path class="cls-13" d="M92.52,70.54l.19-.73c.11.17,0,.43.2.56l-.21.69C92.29,71,92.51,70.74,92.52,70.54Z" transform="translate(-2.72 -0.72)"/><path class="cls-14" d="M96.89,51.45l.32,0c-.07.35.06.72-.14,1.05l-.17-.71Z" transform="translate(-2.72 -0.72)"/><path class="cls-15" d="M91.17,26.21c-.34,0-.47-.3-.62-.54.17-.07.17-.25.21-.39A1.21,1.21,0,0,1,91.17,26.21Z" transform="translate(-2.72 -0.72)"/><path class="cls-16" d="M9.25,25.29c0,.15,0,.32.21.39a.5.5,0,0,1-.44.57c-.14,0-.23-.11-.18-.28A1.33,1.33,0,0,1,9.25,25.29Z" transform="translate(-2.72 -0.72)"/><path class="cls-17" d="M92,72.36a2.14,2.14,0,0,1,.33-1.1c.12,0,.15.1.2.18A2,2,0,0,1,92,72.36Z" transform="translate(-2.72 -0.72)"/><path class="cls-18" d="M7.47,28.57l.19.34c.17.3.24.58-.19.73-.07-.19.06-.45-.21-.56Z" transform="translate(-2.72 -0.72)"/><path class="cls-19" d="M92.71,28.93c-.21.13-.13.35-.18.53-.2-.21-.13-.48-.2-.72s0-.3,0-.45Z" transform="translate(-2.72 -0.72)"/><path class="cls-20" d="M8.17,27.44l0-.18c.11-.25.23-.49.34-.74a.35.35,0,0,1,.29.24C8.71,27.12,8.64,27.46,8.17,27.44Z" transform="translate(-2.72 -0.72)"/><path class="cls-21" d="M8.69,26.73l-.21-.21c.1-.2.15-.42.36-.55l.21.22C9.18,26.53,9,26.65,8.69,26.73Z" transform="translate(-2.72 -0.72)"/><path class="cls-22" d="M7.28,70.9c.23-.12.13-.36.19-.54.14.37.36.74,0,1.1Z" transform="translate(-2.72 -0.72)"/><path class="cls-23" d="M91.29,73.53a.85.85,0,0,1,.55-.82C91.79,73.07,91.71,73.42,91.29,73.53Z" transform="translate(-2.72 -0.72)"/><path class="cls-24" d="M8.69,73.55a.68.68,0,0,1,.52.46l-.16.35A1,1,0,0,1,8.69,73.55Z" transform="translate(-2.72 -0.72)"/><path class="cls-25" d="M92.54,71.44l-.2-.18c0-.24,0-.51.18-.72.07.17,0,.4.18.52Z" transform="translate(-2.72 -0.72)"/><path class="cls-1" d="M8.69,26.73l.36-.54.41-.51a10.55,10.55,0,0,1,7.3-2.56c8.32,0,16.64,0,25,0h1c-.57,1.33-1.14,2.54-1.62,3.79A51,51,0,0,0,38.45,37c-.1.62-.3.82-1,.82-7.09,0-14.18,0-21.27,0a9.75,9.75,0,0,1-6-1.94,7.08,7.08,0,0,1-2.8-4.27l0-2c.18-.21.13-.49.19-.73l.51-1.47Z" transform="translate(-2.72 -0.72)"/><path class="cls-1" d="M40.42,45.47a60.82,60.82,0,0,1,3.26-17.91c1.2-3.36,3.47-5.84,6-8.15.36-.33.49-.05.72.13,3.88,2.95,5.89,7,7.08,11.61a63.38,63.38,0,0,1,2.07,14,6.26,6.26,0,0,1,0,2c-.71.08-.68-.56-.84-.94a9.47,9.47,0,0,0-14-4.17,7.68,7.68,0,0,0-.65.47,4.48,4.48,0,0,0-.7.51l-.17.17a3.5,3.5,0,0,0-.58.75,12.26,12.26,0,0,0-1.64,3c-.11.26-.09.69-.57.6A6.51,6.51,0,0,1,40.42,45.47Z" transform="translate(-2.72 -0.72)"/><path class="cls-1" d="M59.59,54.88c-.39,6.87-1.31,13.63-4.36,19.92a10.68,10.68,0,0,1-3.67,4.35c-.59.39-1,1.38-1.58,1.33s-.95-.94-1.51-1.32c-3-2-4.25-5.14-5.32-8.34a58.46,58.46,0,0,1-2.73-16.29,5,5,0,0,1,0-1.81c.63-.11.61.46.75.8a9.5,9.5,0,0,0,4.76,5.17,9.36,9.36,0,0,0,12.32-3.95c.24-.45.44-.92.67-1.37.13-.25.21-.6.64-.48A6,6,0,0,1,59.59,54.88Z" transform="translate(-2.72 -0.72)"/><path class="cls-26" d="M59.37,52.87c-1.66,4.55-5.27,7.17-9.71,7a9.81,9.81,0,0,1-9-7.19c-.25-.25-.15-.59-.26-.88s.07-.62-.08-.91v-2c.27-.34.11-.75.16-1.12a.64.64,0,0,1,.14-.35,9.19,9.19,0,0,1,1.95-3.8c.2-.06.33-.37.61-.15a.45.45,0,0,1,.08.42c-.39,2.26.35,3.2,2.59,3.3.6,0,1.16.05,1.17.86a5.11,5.11,0,0,0-.13,3.14,2.82,2.82,0,0,0,1,1.36l.17.17c.17.25.46.32.69.46a3.59,3.59,0,0,0,4.63-2.7,3.34,3.34,0,0,0-3.21-3.85c-.24,0-.48,0-.72,0a1.06,1.06,0,0,0-.77.18l-.2.1a2,2,0,0,0-.62.28.65.65,0,0,1-.24,0,.91.91,0,0,1-.53-.67.41.41,0,0,1,.21-.3c.89-.21.44-.69.22-1.12-.09-.26-.15-.52-.25-.77a2.18,2.18,0,0,0-3.16-1.2c-.3.15-.54.53-1,.33a.37.37,0,0,1,0-.5h0a5,5,0,0,0,.69-.61,9.55,9.55,0,0,1,12-.33,10.3,10.3,0,0,1,3.52,5.08c.26.3.21.69.27,1s-.07.64.08.94v1.8a1,1,0,0,0-.15.34,8.47,8.47,0,0,0,0,1C59.55,52.48,59.57,52.71,59.37,52.87Z" transform="translate(-2.72 -0.72)"/><path class="cls-27" d="M59.37,52.87l0-.68c.09-.12.06-.29.14-.42a.17.17,0,0,1,.2,0,13.3,13.3,0,0,1-.14,3.09C59.36,54.23,59.8,53.5,59.37,52.87Z" transform="translate(-2.72 -0.72)"/><path class="cls-28" d="M59.57,48.19a3,3,0,0,1-.2-1.07c.41-.64,0-1.36.21-2a13.33,13.33,0,0,1,.15,3.09C59.67,48.28,59.61,48.28,59.57,48.19Z" transform="translate(-2.72 -0.72)"/><path class="cls-29" d="M40.44,51.79a1.59,1.59,0,0,1,.18.91c-.36.58,0,1.24-.2,1.83a11.33,11.33,0,0,1-.15-2.73C40.33,51.72,40.38,51.72,40.44,51.79Z" transform="translate(-2.72 -0.72)"/><path class="cls-30" d="M40.59,47.45l0,.38c-.16.08,0,.47-.35.35a9.88,9.88,0,0,1,.15-2.71C40.63,46.12,40.26,46.81,40.59,47.45Z" transform="translate(-2.72 -0.72)"/><path class="cls-31" d="M40.27,48.18l.35-.35c-.1.37.27.87-.33,1.09Z" transform="translate(-2.72 -0.72)"/><path class="cls-32" d="M40.44,51.79h-.17v-.89C40.53,51.17,40.42,51.49,40.44,51.79Z" transform="translate(-2.72 -0.72)"/><path class="cls-33" d="M59.73,51.79l-.16,0a.69.69,0,0,1,0-.72l.18-.19Z" transform="translate(-2.72 -0.72)"/><path class="cls-34" d="M59.57,48.19h.16v.9C59.46,48.83,59.57,48.5,59.57,48.19Z" transform="translate(-2.72 -0.72)"/><path class="cls-35" d="M43.16,43l0,.56h0l-.65.12A1.35,1.35,0,0,1,43.16,43Z" transform="translate(-2.72 -0.72)"/><path class="cls-35" d="M43.85,42.37a.8.8,0,0,1-.69.61A1.25,1.25,0,0,1,43.85,42.37Z" transform="translate(-2.72 -0.72)"/><path d="M49.35,46.42a4,4,0,0,1,3.75,1.67A3.38,3.38,0,0,1,51.9,53c-.16.09-.31.19-.46.29a3.93,3.93,0,0,1-2.42.16c-.27-.13-.48-.41-.83-.36a.88.88,0,0,1-.35-.17.14.14,0,0,1,0-.11,9.08,9.08,0,0,0-1.07-1.32,3.58,3.58,0,0,1,0-3.25c.25-.42.32-1,1-1.06a.11.11,0,0,0,.13-.06,6.05,6.05,0,0,1,.55-.32l.17-.06A2.2,2.2,0,0,1,49.35,46.42Z" transform="translate(-2.72 -0.72)"/><path class="cls-36" d="M43.18,43.54A2.58,2.58,0,0,1,46,42.79a2.52,2.52,0,0,1,1.64,2.35,1,1,0,0,1-.4,1.24l-.15.19c-.19.8-.91.72-1.48.89a2.56,2.56,0,0,1-2.44-3.93Z" transform="translate(-2.72 -0.72)"/><path class="cls-37" d="M45.63,47.46a4.75,4.75,0,0,0,1.48-.89l.6.57-1,1.06C46.86,47.21,46.11,47.55,45.63,47.46Z" transform="translate(-2.72 -0.72)"/><path class="cls-37" d="M47.26,46.38l.4-1.24a1,1,0,0,0,1.07.61C48.07,46,47.78,46.43,47.26,46.38Z" transform="translate(-2.72 -0.72)"/><path class="cls-38" d="M48.92,53.24a4.79,4.79,0,0,0,2.52,0,3.06,3.06,0,0,1-2.92,0,.18.18,0,0,1,.12-.15A.28.28,0,0,1,48.92,53.24Z" transform="translate(-2.72 -0.72)"/><path class="cls-39" d="M46.74,51.45c.54.29,1.09.57,1.07,1.32A2.14,2.14,0,0,1,46.74,51.45Z" transform="translate(-2.72 -0.72)"/><path class="cls-40" d="M59.55,51.09c0,.24,0,.48,0,.72l-.18.38C59.42,51.82,59.24,51.42,59.55,51.09Z" transform="translate(-2.72 -0.72)"/><path class="cls-37" d="M49.35,46.42a1.14,1.14,0,0,1-.79.28C48.69,46.24,49.06,46.44,49.35,46.42Z" transform="translate(-2.72 -0.72)"/><path class="cls-37" d="M48.39,46.76a.66.66,0,0,1-.55.32C47.88,46.73,48.14,46.75,48.39,46.76Z" transform="translate(-2.72 -0.72)"/><path class="cls-38" d="M47.84,52.88l.33,0c.11.13.46,0,.4.33l0,.06C48.23,53.25,48,53.2,47.84,52.88Z" transform="translate(-2.72 -0.72)"/><path class="cls-39" d="M48.57,53.23l-.4-.33c.3,0,.67-.14.75.34Z" transform="translate(-2.72 -0.72)"/></svg>